<svg xmlns="http://www.w3.org/2000/svg" xmlns:xlink="http://www.w3.org/1999/xlink" viewBox="0 0 191.78 119.95"><defs><style>.cls-1{fill:url(#Adsız_degrade_24);}.cls-2{fill:url(#Adsız_degrade_24-2);}.cls-3{fill:url(#Adsız_degrade_24-3);}.cls-4{fill:url(#Adsız_degrade_24-4);}.cls-5{fill:url(#Adsız_degrade_24-5);}.cls-6{fill:url(#Adsız_degrade_24-6);}</style><linearGradient id="Adsız_degrade_24" x1="125.27" y1="9.37" x2="191.78" y2="9.37" gradientUnits="userSpaceOnUse"><stop offset="0" stop-color="#005096"/><stop offset="1" stop-color="#001450"/></linearGradient><linearGradient id="Adsız_degrade_24-2" x1="124.93" y1="44.86" x2="172.2" y2="44.86" xlink:href="#Adsız_degrade_24"/><linearGradient id="Adsız_degrade_24-3" x1="124.93" y1="96.49" x2="191.78" y2="96.49" xlink:href="#Adsız_degrade_24"/><linearGradient id="Adsız_degrade_24-4" x1="20.89" y1="59.97" x2="78.21" y2="59.97" xlink:href="#Adsız_degrade_24"/><linearGradient id="Adsız_degrade_24-5" x1="100.75" y1="23.81" x2="112.53" y2="23.81" xlink:href="#Adsız_degrade_24"/><linearGradient id="Adsız_degrade_24-6" x1="0" y1="59.97" x2="119.95" y2="59.97" xlink:href="#Adsız_degrade_24"/></defs><g id="katman_2" data-name="katman 2"><g id="katman_1-2" data-name="katman 1"><path class="cls-1" d="M125.27,12.77a11.19,11.19,0,0,1,2-6.64,13.57,13.57,0,0,1,5.57-4.51A19.36,19.36,0,0,1,141,0h46.5a4.16,4.16,0,0,1,3.06,1.19,4.14,4.14,0,0,1,1.19,3.07,4.09,4.09,0,0,1-4.25,4.26H141a10.16,10.16,0,0,0-5.2,1.19,3.51,3.51,0,0,0-2,3.06V14.9a3.53,3.53,0,0,1-1.2,2.77,4.41,4.41,0,0,1-3.06,1.07,3.66,3.66,0,0,1-3.07-1.62A6.89,6.89,0,0,1,125.27,13Z"/><path class="cls-2" d="M124.93,43.2A20.51,20.51,0,0,1,128,32.05a22,22,0,0,1,8.43-7.8,25.14,25.14,0,0,1,12.05-2.85,23.66,23.66,0,0,1,12.09,3.11,22.94,22.94,0,0,1,8.48,8.43,23.31,23.31,0,0,1,3.11,12,22.91,22.91,0,0,1-11.59,20.32,23.65,23.65,0,0,1-12.09,3.1V65a25.14,25.14,0,0,1-12.05-2.85A22.06,22.06,0,0,1,128,54.36,20.54,20.54,0,0,1,124.93,43.2Zm7.66,1.7a14.59,14.59,0,0,0,2.09,7.76A14.89,14.89,0,0,0,140.39,58a16.74,16.74,0,0,0,8.13,2,16.93,16.93,0,0,0,8.22-2,15,15,0,0,0,5.71-5.36,15.4,15.4,0,0,0,0-15.46,15.11,15.11,0,0,0-5.71-5.45,16.62,16.62,0,0,0-8.22-2,16.44,16.44,0,0,0-8.13,2,15,15,0,0,0-5.71,5.45A14.61,14.61,0,0,0,132.59,44.9ZM125.19,64a4.21,4.21,0,0,1,4.34-4.34h13l9,1.62-3.07,7.06h-19A4.21,4.21,0,0,1,125.19,64Z"/><path class="cls-3" d="M124.93,96.44a22.8,22.8,0,0,1,11.58-20.27A24.68,24.68,0,0,1,148.61,73h38.83a4.14,4.14,0,0,1,3.15,1.24,4.32,4.32,0,0,1-3.15,7.45h-23a22,22,0,0,1,5.66,7.2,21.51,21.51,0,0,1-1,20.39,22.16,22.16,0,0,1-8.43,7.8,25.14,25.14,0,0,1-12,2.85,23.72,23.72,0,0,1-12.1-3.11,22.94,22.94,0,0,1-11.58-20.4Zm7.66,0a14.54,14.54,0,0,0,2.09,7.75,15.06,15.06,0,0,0,5.75,5.41,16.82,16.82,0,0,0,8.18,2,16.48,16.48,0,0,0,8.17-2,15.27,15.27,0,0,0,5.67-5.41,15.38,15.38,0,0,0,0-15.45,14.81,14.81,0,0,0-5.67-5.41,16.68,16.68,0,0,0-8.17-2,17,17,0,0,0-8.18,2,14.59,14.59,0,0,0-7.84,13.11Z"/><path class="cls-4" d="M74.5,44.47A28.22,28.22,0,0,0,64.33,33.66a27.57,27.57,0,0,0-14.7-4,27.66,27.66,0,0,0-14.61,4A28.55,28.55,0,0,0,24.69,44.47a31.68,31.68,0,0,0-3.8,15.59,31.29,31.29,0,0,0,3.8,15.41A28.51,28.51,0,0,0,35,86.29a27.66,27.66,0,0,0,14.61,4,27.57,27.57,0,0,0,14.7-4A28.18,28.18,0,0,0,74.5,75.47a31.89,31.89,0,0,0,3.71-15.41A32.3,32.3,0,0,0,74.5,44.47Z"/><path class="cls-5" d="M106.64,17.92a5.65,5.65,0,0,0-4.27,1.67,5.83,5.83,0,0,0-1.62,4.22A6,6,0,0,0,110.92,28a5.88,5.88,0,0,0,1.61-4.22,5.71,5.71,0,0,0-5.89-5.89Z"/><path class="cls-6" d="M104.39,0H15.56A15.55,15.55,0,0,0,0,15.56v88.83A15.56,15.56,0,0,0,15.56,120h88.83A15.56,15.56,0,0,0,120,104.39V15.56A15.56,15.56,0,0,0,104.39,0ZM94,96.06a8.24,8.24,0,1,1-16.47,0v-6a41,41,0,0,1-10,8.83,38.86,38.86,0,0,1-21.15,5.9,38.91,38.91,0,0,1-21.15-5.9,41.83,41.83,0,0,1-14.77-16A47.54,47.54,0,0,1,5.07,60.06,44.88,44.88,0,0,1,11,37.13,43.53,43.53,0,0,1,27,21.06a44.21,44.21,0,0,1,22.68-5.89,43.41,43.41,0,0,1,38.51,22A44.87,44.87,0,0,1,94,60.06Zm20.85-.16a8.13,8.13,0,0,1-2.27,5.89,7.9,7.9,0,0,1-6,2.34,8,8,0,0,1-8.23-8.23V24.05a7.93,7.93,0,0,1,2.34-6,8.12,8.12,0,0,1,5.89-2.26,7.78,7.78,0,0,1,8.24,8.23Z"/></g></g></svg>