<svg xmlns="http://www.w3.org/2000/svg" xmlns:xlink="http://www.w3.org/1999/xlink" viewBox="0 0 216.97 216.97"><defs><style>.cls-1{fill:url(#Adsız_degrade_279);}.cls-2{fill:#fff;}.cls-3{fill:#f5f5f5;}</style><linearGradient id="Adsız_degrade_279" y1="108.49" x2="216.97" y2="108.49" gradientUnits="userSpaceOnUse"><stop offset="0" stop-color="#001464"/><stop offset="0.23" stop-color="#001360"/><stop offset="0.48" stop-color="#001053"/><stop offset="0.72" stop-color="#000b3f"/><stop offset="0.97" stop-color="#000422"/><stop offset="1" stop-color="#00031e"/></linearGradient></defs><g id="katman_2" data-name="katman 2"><g id="katman_1-2" data-name="katman 1"><rect class="cls-1" width="216.97" height="216.97" rx="108.48"/><path class="cls-2" d="M65.33,155.38a40.74,40.74,0,0,1-22.14-6.16,43.85,43.85,0,0,1-15.46-16.74,49.73,49.73,0,0,1-5.66-23.91,47,47,0,0,1,6.16-24A45.7,45.7,0,0,1,45,67.75a46.2,46.2,0,0,1,23.74-6.16,45.45,45.45,0,0,1,40.31,23,47,47,0,0,1,6.17,24H108.6a49.85,49.85,0,0,1-5.66,23.91,43.88,43.88,0,0,1-15.47,16.74A40.69,40.69,0,0,1,65.33,155.38Zm3.38-15.21A28.76,28.76,0,0,0,84.09,136a29.39,29.39,0,0,0,10.65-11.32,33.38,33.38,0,0,0,3.89-16.14,33.75,33.75,0,0,0-3.89-16.31A29.39,29.39,0,0,0,84.09,80.94,28.85,28.85,0,0,0,68.71,76.8a29,29,0,0,0-15.29,4.14A29.81,29.81,0,0,0,42.6,92.26a33.13,33.13,0,0,0-4,16.31,32.77,32.77,0,0,0,4,16.14A29.81,29.81,0,0,0,53.42,136,28.87,28.87,0,0,0,68.71,140.17Zm37.86,14.71A8.38,8.38,0,0,1,98,146.26V120.4l3.21-17.91,14,6.08v37.69a8.38,8.38,0,0,1-8.62,8.62Z"/><path class="cls-2" d="M134.64,64.63a9.32,9.32,0,0,0-12.42,0,8.27,8.27,0,0,0-2.45,6.25v75.21a8.78,8.78,0,0,0,14.87,6.17,8.51,8.51,0,0,0,2.37-6.17V70.88A8.44,8.44,0,0,0,134.64,64.63ZM132.86,75a6.2,6.2,0,0,1-10.64-4.41,6.1,6.1,0,0,1,1.69-4.42,6.21,6.21,0,0,1,10.65,4.42A6.1,6.1,0,0,1,132.86,75Z"/><path class="cls-3" d="M145,71.85a8.45,8.45,0,0,1,1.53-5,10.13,10.13,0,0,1,4.19-3.38,14.5,14.5,0,0,1,6.1-1.22h34.89a3.26,3.26,0,0,1,2.3,5.5,3.14,3.14,0,0,1-2.3.89H156.82a7.63,7.63,0,0,0-3.9.9,2.62,2.62,0,0,0-1.53,2.3v1.59a2.64,2.64,0,0,1-.9,2.08,3.32,3.32,0,0,1-2.3.8,2.76,2.76,0,0,1-2.3-1.22A5.16,5.16,0,0,1,145,72Z"/><path class="cls-3" d="M144.74,94.68a15.35,15.35,0,0,1,2.34-8.38,16.48,16.48,0,0,1,6.32-5.84,18.8,18.8,0,0,1,9-2.14,17.74,17.74,0,0,1,9.08,2.33A17.24,17.24,0,0,1,177.88,87a17.6,17.6,0,0,1-6.36,24.21,17.75,17.75,0,0,1-9.08,2.34V111a18.8,18.8,0,0,1-9-2.14,16.55,16.55,0,0,1-6.32-5.84A15.37,15.37,0,0,1,144.74,94.68ZM150.49,96a11,11,0,0,0,1.57,5.82,11.12,11.12,0,0,0,4.28,4,12.62,12.62,0,0,0,6.1,1.47,12.76,12.76,0,0,0,6.17-1.47,11.12,11.12,0,0,0,4.28-4,11.5,11.5,0,0,0,0-11.6,11.22,11.22,0,0,0-4.28-4.09,12.55,12.55,0,0,0-6.17-1.5,12.42,12.42,0,0,0-6.1,1.5,11.22,11.22,0,0,0-4.28,4.09A11,11,0,0,0,150.49,96Zm-5.55,14.32a3.16,3.16,0,0,1,.92-2.34,3.2,3.2,0,0,1,2.33-.92H158l6.77,1.21-2.3,5.31H148.19a3.16,3.16,0,0,1-3.25-3.26Z"/><path class="cls-3" d="M144.74,134.62a17.24,17.24,0,0,1,2.34-8.94,17.06,17.06,0,0,1,6.35-6.27,18.48,18.48,0,0,1,9.08-2.36h29.14A3.13,3.13,0,0,1,194,118a3.25,3.25,0,0,1-2.36,5.59H174.39a16.36,16.36,0,0,1,4.25,5.4,16.15,16.15,0,0,1-.76,15.3,16.68,16.68,0,0,1-6.33,5.85,18.92,18.92,0,0,1-9,2.14,17.84,17.84,0,0,1-9.08-2.33,17.26,17.26,0,0,1-8.69-15.31Zm5.75,0a11,11,0,0,0,1.57,5.82,11.29,11.29,0,0,0,4.31,4.05,12.5,12.5,0,0,0,6.14,1.51,12.24,12.24,0,0,0,6.13-1.51,11.41,11.41,0,0,0,4.25-4.05,11.22,11.22,0,0,0-4.25-15.66,12.55,12.55,0,0,0-6.13-1.47,12.81,12.81,0,0,0-6.14,1.47,11,11,0,0,0-5.88,9.84Z"/></g></g></svg>